<svg width="32" height="33" viewBox="0 0 32 33" fill="none" xmlns="http://www.w3.org/2000/svg">
<g filter="url(#filter0_d)">
<path d="M18.7963 11.4545C19.4925 11.4545 20.1602 11.7347 20.6525 12.2334C21.1448 12.7321 21.4213 13.4084 21.4213 14.1136V21.4988C21.4213 23.223 20.7452 24.8766 19.5416 26.0958C18.338 27.3151 16.7056 28 15.0035 28C13.3014 28 11.669 27.3151 10.4654 26.0958C9.26183 24.8766 8.58567 23.223 8.58567 21.4988V14.1136C8.58567 13.4084 8.86223 12.7321 9.35451 12.2334C9.8468 11.7347 10.5145 11.4545 11.2107 11.4545H18.7963ZM18.7963 13.2273H11.2107C10.9786 13.2273 10.756 13.3207 10.5919 13.4869C10.4279 13.6531 10.3357 13.8786 10.3357 14.1136V21.4988C10.3357 22.7529 10.8275 23.9556 11.7028 24.8423C12.5782 25.7291 13.7655 26.2273 15.0035 26.2273C16.2415 26.2273 17.4288 25.7291 18.3042 24.8423C19.1795 23.9556 19.6713 22.7529 19.6713 21.4988V14.1136C19.6713 13.8786 19.5791 13.6531 19.4151 13.4869C19.251 13.3207 19.0284 13.2273 18.7963 13.2273ZM3.625 11.4545H8.47367C8.00527 11.9486 7.67614 12.5607 7.5205 13.2273H3.625C3.39294 13.2273 3.17038 13.3207 3.00628 13.4869C2.84219 13.6531 2.75 13.8786 2.75 14.1136V20.317C2.74984 20.91 2.89646 21.4935 3.17645 22.0143C3.45643 22.535 3.86085 22.9764 4.3527 23.2979C4.84454 23.6195 5.40813 23.8109 5.9919 23.8548C6.57567 23.8988 7.161 23.7937 7.69433 23.5493C7.8495 24.1284 8.07233 24.6791 8.35233 25.1944C7.55301 25.5479 6.67935 25.6942 5.81025 25.62C4.94114 25.5458 4.10396 25.2535 3.37431 24.7694C2.64466 24.2854 2.04552 23.6249 1.631 22.8476C1.21647 22.0702 0.999608 21.2005 1 20.317V14.1136C1 13.4084 1.27656 12.7321 1.76885 12.2334C2.26113 11.7347 2.92881 11.4545 3.625 11.4545ZM26.375 11.4545C27.0712 11.4545 27.7389 11.7347 28.2312 12.2334C28.7234 12.7321 29 13.4084 29 14.1136V20.3182C29.0003 21.2012 28.7836 22.0704 28.3694 22.8474C27.9552 23.6243 27.3566 24.2846 26.6275 24.7685C25.8984 25.2525 25.0618 25.545 24.1932 25.6195C23.3247 25.6941 22.4514 25.5484 21.6523 25.1955L21.7177 25.075C21.9673 24.5952 22.1692 24.0858 22.3138 23.5516C22.8469 23.7946 23.4315 23.8985 24.0143 23.8537C24.5972 23.809 25.1597 23.6171 25.6505 23.2956C26.1414 22.9741 26.5449 22.5332 26.8243 22.0131C27.1037 21.493 27.25 20.9103 27.25 20.3182V14.1136C27.25 13.8788 27.158 13.6535 26.9941 13.4873C26.8303 13.3211 26.608 13.2276 26.3762 13.2273H22.4877C22.3318 12.5606 22.0022 11.9484 21.5333 11.4545H26.3762H26.375ZM15 2C15.5362 2 16.0672 2.10699 16.5626 2.31486C17.058 2.52273 17.5082 2.82742 17.8874 3.21151C18.2665 3.59561 18.5673 4.0516 18.7725 4.55345C18.9777 5.05529 19.0833 5.59317 19.0833 6.13636C19.0833 6.67956 18.9777 7.21743 18.7725 7.71928C18.5673 8.22113 18.2665 8.67712 17.8874 9.06121C17.5082 9.44531 17.058 9.74999 16.5626 9.95787C16.0672 10.1657 15.5362 10.2727 15 10.2727C13.917 10.2727 12.8784 9.83693 12.1126 9.06121C11.3469 8.2855 10.9167 7.2334 10.9167 6.13636C10.9167 5.03933 11.3469 3.98723 12.1126 3.21151C12.8784 2.43579 13.917 2 15 2ZM24.3368 3.18182C24.7965 3.18182 25.2516 3.27352 25.6762 3.4517C26.1009 3.62988 26.4867 3.89103 26.8117 4.22026C27.1367 4.54948 27.3945 4.94033 27.5704 5.37049C27.7463 5.80064 27.8368 6.26168 27.8368 6.72727C27.8368 7.19287 27.7463 7.6539 27.5704 8.08406C27.3945 8.51421 27.1367 8.90506 26.8117 9.23429C26.4867 9.56351 26.1009 9.82467 25.6762 10.0028C25.2516 10.181 24.7965 10.2727 24.3368 10.2727C23.4086 10.2727 22.5183 9.89919 21.862 9.23429C21.2056 8.56939 20.8368 7.66759 20.8368 6.72727C20.8368 5.78696 21.2056 4.88516 21.862 4.22026C22.5183 3.55536 23.4086 3.18182 24.3368 3.18182ZM5.66317 3.18182C6.12279 3.18182 6.57792 3.27352 7.00256 3.4517C7.4272 3.62988 7.81304 3.89103 8.13804 4.22026C8.46305 4.54948 8.72085 4.94033 8.89675 5.37049C9.07264 5.80064 9.16317 6.26168 9.16317 6.72727C9.16317 7.19287 9.07264 7.6539 8.89675 8.08406C8.72085 8.51421 8.46305 8.90506 8.13804 9.23429C7.81304 9.56351 7.4272 9.82467 7.00256 10.0028C6.57792 10.181 6.12279 10.2727 5.66317 10.2727C4.73491 10.2727 3.84467 9.89919 3.18829 9.23429C2.53192 8.56939 2.16317 7.66759 2.16317 6.72727C2.16317 5.78696 2.53192 4.88516 3.18829 4.22026C3.84467 3.55536 4.73491 3.18182 5.66317 3.18182ZM15 3.77273C14.3812 3.77273 13.7877 4.02175 13.3501 4.46502C12.9125 4.90829 12.6667 5.50949 12.6667 6.13636C12.6667 6.76324 12.9125 7.36444 13.3501 7.80771C13.7877 8.25097 14.3812 8.5 15 8.5C15.6188 8.5 16.2123 8.25097 16.6499 7.80771C17.0875 7.36444 17.3333 6.76324 17.3333 6.13636C17.3333 5.50949 17.0875 4.90829 16.6499 4.46502C16.2123 4.02175 15.6188 3.77273 15 3.77273ZM24.3368 4.95455C24.107 4.95455 23.8795 5.0004 23.6671 5.08949C23.4548 5.17857 23.2619 5.30915 23.0994 5.47376C22.9369 5.63838 22.808 5.8338 22.72 6.04888C22.6321 6.26396 22.5868 6.49447 22.5868 6.72727C22.5868 6.96007 22.6321 7.19059 22.72 7.40567C22.808 7.62074 22.9369 7.81617 23.0994 7.98078C23.2619 8.14539 23.4548 8.27597 23.6671 8.36506C23.8795 8.45415 24.107 8.5 24.3368 8.5C24.801 8.5 25.2461 8.31323 25.5743 7.98078C25.9025 7.64833 26.0868 7.19743 26.0868 6.72727C26.0868 6.25712 25.9025 5.80622 25.5743 5.47376C25.2461 5.14131 24.801 4.95455 24.3368 4.95455ZM5.66317 4.95455C5.43335 4.95455 5.20579 5.0004 4.99347 5.08949C4.78115 5.17857 4.58823 5.30915 4.42573 5.47376C4.26323 5.63838 4.13432 5.8338 4.04638 6.04888C3.95843 6.26396 3.91317 6.49447 3.91317 6.72727C3.91317 6.96007 3.95843 7.19059 4.04638 7.40567C4.13432 7.62074 4.26323 7.81617 4.42573 7.98078C4.58823 8.14539 4.78115 8.27597 4.99347 8.36506C5.20579 8.45415 5.43335 8.5 5.66317 8.5C6.1273 8.5 6.57242 8.31323 6.9006 7.98078C7.22879 7.64833 7.41317 7.19743 7.41317 6.72727C7.41317 6.25712 7.22879 5.80622 6.9006 5.47376C6.57242 5.14131 6.1273 4.95455 5.66317 4.95455Z" fill="white" fill-opacity="0.9"/>
</g>
<path d="M23 32C26.866 32 30 28.866 30 25C30 21.134 26.866 18 23 18C19.134 18 16 21.134 16 25C16 28.866 19.134 32 23 32Z" fill="#2074C5" stroke="white" stroke-opacity="0.9" stroke-width="2"/>
<path d="M23.0001 22.2001V25.0001M23.0001 25.0001V27.8001M23.0001 25.0001H25.8001M23.0001 25.0001H20.2001" stroke="white" stroke-opacity="0.9" stroke-width="2" stroke-linecap="round"/>
<defs>
<filter id="filter0_d" x="0" y="0" width="32" height="30" filterUnits="userSpaceOnUse" color-interpolation-filters="sRGB">
<feFlood flood-opacity="0" result="BackgroundImageFix"/>
<feColorMatrix in="SourceAlpha" type="matrix" values="0 0 0 0 0 0 0 0 0 0 0 0 0 0 0 0 0 0 127 0"/>
<feOffset dx="1"/>
<feGaussianBlur stdDeviation="1"/>
<feColorMatrix type="matrix" values="0 0 0 0 0 0 0 0 0 0 0 0 0 0 0 0 0 0 0.25 0"/>
<feBlend mode="normal" in2="BackgroundImageFix" result="effect1_dropShadow"/>
<feBlend mode="normal" in="SourceGraphic" in2="effect1_dropShadow" result="shape"/>
</filter>
</defs>
</svg>
