<svg width="31" height="31" viewBox="0 0 31 31" fill="none" xmlns="http://www.w3.org/2000/svg">
<path d="M15.5 0C19.6109 0 23.5533 1.63303 26.4602 4.53984C29.367 7.44666 31 11.3891 31 15.5C31 19.6109 29.367 23.5533 26.4602 26.4602C23.5533 29.367 19.6109 31 15.5 31C11.3891 31 7.44666 29.367 4.53984 26.4602C1.63303 23.5533 0 19.6109 0 15.5C0 11.3891 1.63303 7.44666 4.53984 4.53984C7.44666 1.63303 11.3891 0 15.5 0ZM13.95 7.75C13.5389 7.75 13.1447 7.9133 12.854 8.20399C12.5633 8.49467 12.4 8.88891 12.4 9.3V17.05C12.4 17.4611 12.5633 17.8553 12.854 18.146C13.1447 18.4367 13.5389 18.6 13.95 18.6H20.15C20.5611 18.6 20.9553 18.4367 21.246 18.146C21.5367 17.8553 21.7 17.4611 21.7 17.05C21.7 16.6389 21.5367 16.2447 21.246 15.954C20.9553 15.6633 20.5611 15.5 20.15 15.5H15.5V9.3C15.5 8.88891 15.3367 8.49467 15.046 8.20399C14.7553 7.9133 14.3611 7.75 13.95 7.75Z" fill="#4A7DA7"/>
</svg>
