<svg width="15" height="15" viewBox="0 0 15 15" fill="none" xmlns="http://www.w3.org/2000/svg">
<path d="M3.5 3C3.2 3 3 2.8 3 2.5V0.5C3 0.2 3.2 0 3.5 0C3.8 0 4 0.2 4 0.5V2.5C4 2.8 3.8 3 3.5 3Z" fill="#4E4F55"/>
<path d="M11.5 3C11.2 3 11 2.8 11 2.5V0.5C11 0.2 11.2 0 11.5 0C11.8 0 12 0.2 12 0.5V2.5C12 2.8 11.8 3 11.5 3Z" fill="#4E4F55"/>
<path d="M5 1H10V2H5V1Z" fill="#4E4F55"/>
<path fill-rule="evenodd" clip-rule="evenodd" d="M13.5 15H1.5C0.65 15 0 14.35 0 13.5V2.5C0 1.65 0.55 1 1.25 1H2V2H1.25C1.15 2 1 2.2 1 2.5V4H13.9999L14 2.5C14 2.2 13.85 2 13.75 2H13V1H13.75C14.45 1 15 1.65 15 2.5V13.5C15 14.35 14.35 15 13.5 15ZM3.99994 6H4.99994V7H3.99994V6ZM7 6H6V7H7V6ZM9.00006 6H8.00006V7H9.00006V6ZM9.99994 6H10.9999V7H9.99994V6ZM9.99994 8.00002H10.9999V9.00002H9.99994V8.00002ZM8.00006 8.00002H9.00006V9.00002H8.00006V8.00002ZM6 8.00002H7V9.00002H6V8.00002ZM3.99994 8.00002H4.99994V9.00002H3.99994V8.00002ZM2.00006 8.00002H3.00006V9.00002H2.00006V8.00002ZM9.99994 9.99998H10.9999V11H9.99994V9.99998ZM8.00006 9.99998H9.00006V11H8.00006V9.99998ZM6 9.99998H7V11H6V9.99998ZM3.99994 9.99998H4.99994V11H3.99994V9.99998ZM2.00006 9.99998H3.00006V11H2.00006V9.99998Z" fill="#4E4F55"/>
</svg>
