<svg width="20" height="20" viewBox="0 0 20 20" fill="none" xmlns="http://www.w3.org/2000/svg">
<path d="M18 20H2C0.866667 20 0 19.1333 0 18V3.33331C0 2.19998 0.733333 1.33331 1.66667 1.33331H2.66667V2.66665H1.66667C1.53333 2.66665 1.33333 2.93331 1.33333 3.33331V18C1.33333 18.4 1.6 18.6666 2 18.6666H18C18.4 18.6666 18.6667 18.4 18.6667 18V3.33331C18.6667 2.93331 18.4667 2.66665 18.3333 2.66665H17.3333V1.33331H18.3333C19.2667 1.33331 20 2.19998 20 3.33331V18C20 19.1333 19.1333 20 18 20Z" fill="#4E4F55"/>
<path d="M4.66667 4C4.26667 4 4 3.73333 4 3.33333V0.666667C4 0.266667 4.26667 0 4.66667 0C5.06667 0 5.33333 0.266667 5.33333 0.666667V3.33333C5.33333 3.73333 5.06667 4 4.66667 4Z" fill="#4E4F55"/>
<path d="M15.3334 4C14.9334 4 14.6667 3.73333 14.6667 3.33333V0.666667C14.6667 0.266667 14.9334 0 15.3334 0C15.7334 0 16.0001 0.266667 16.0001 0.666667V3.33333C16.0001 3.73333 15.7334 4 15.3334 4Z" fill="#4E4F55"/>
<path d="M6.66675 1.33331H13.3334V2.66665H6.66675V1.33331Z" fill="#4E4F55"/>
<path d="M1.33325 5.33331H18.6666V6.66665H1.33325V5.33331Z" fill="#4E4F55"/>
<path d="M13.3333 8H14.6666V9.33333H13.3333V8Z" fill="#4E4F55"/>
<path d="M10.6667 8H12.0001V9.33333H10.6667V8Z" fill="#4E4F55"/>
<path d="M8 8H9.33333V9.33333H8V8Z" fill="#4E4F55"/>
<path d="M5.33325 8H6.66659V9.33333H5.33325V8Z" fill="#4E4F55"/>
<path d="M13.3333 10.6667H14.6666V12H13.3333V10.6667Z" fill="#4E4F55"/>
<path d="M10.6667 10.6667H12.0001V12H10.6667V10.6667Z" fill="#4E4F55"/>
<path d="M8 10.6667H9.33333V12H8V10.6667Z" fill="#4E4F55"/>
<path d="M5.33325 10.6667H6.66659V12H5.33325V10.6667Z" fill="#4E4F55"/>
<path d="M2.66675 10.6667H4.00008V12H2.66675V10.6667Z" fill="#4E4F55"/>
<path d="M13.3333 13.3333H14.6666V14.6666H13.3333V13.3333Z" fill="#4E4F55"/>
<path d="M10.6667 13.3333H12.0001V14.6666H10.6667V13.3333Z" fill="#4E4F55"/>
<path d="M8 13.3333H9.33333V14.6666H8V13.3333Z" fill="#4E4F55"/>
<path d="M5.33325 13.3333H6.66659V14.6666H5.33325V13.3333Z" fill="#4E4F55"/>
<path d="M2.66675 13.3333H4.00008V14.6666H2.66675V13.3333Z" fill="#4E4F55"/>
</svg>
