<svg width="18" height="15" viewBox="0 0 18 15" fill="none" xmlns="http://www.w3.org/2000/svg">
<path d="M10.4496 12.7745L11.1004 13.4175C11.376 13.6897 11.8216 13.6897 12.0942 13.4175L17.7933 7.78974C18.0689 7.51747 18.0689 7.07722 17.7933 6.80785L12.0942 1.17722C11.8187 0.904957 11.3731 0.904957 11.1004 1.17722L10.4496 1.82022C10.1711 2.09538 10.177 2.54433 10.4613 2.81369L13.9939 6.13878H5.56845C5.17855 6.13878 4.86487 6.4487 4.86487 6.83392V7.76077C4.86487 8.146 5.17855 8.45591 5.56845 8.45591H13.9939L10.4613 11.781C10.174 12.0504 10.1682 12.4993 10.4496 12.7745Z" fill="#ACB0B9"/>
<rect width="2.43243" height="14.1081" rx="1" fill="#ACB0B9"/>
</svg>
