<svg width="36" height="35" viewBox="0 0 36 35" fill="none" xmlns="http://www.w3.org/2000/svg">
<g filter="url(#filter0_d)">
<path d="M14.3858 33C13.8657 32.9998 13.3669 32.7879 12.9992 32.4108C12.6315 32.0338 12.4249 31.5225 12.4247 30.9893V17.9296C12.4248 17.763 12.3642 17.6023 12.2548 17.4791L1.51008 5.36258C1.25449 5.07442 1.08606 4.71634 1.02527 4.33188C0.964475 3.94742 1.01394 3.55313 1.16764 3.19695C1.32134 2.84077 1.57266 2.53803 1.89106 2.32554C2.20945 2.11304 2.5812 1.99995 2.96112 2H31.039C31.4189 1.99998 31.7906 2.11308 32.109 2.32557C32.4274 2.53805 32.6787 2.84077 32.8323 3.19692C32.986 3.55307 33.0355 3.94732 32.9748 4.33175C32.914 4.71619 32.7456 5.07425 32.4901 5.36242L21.7455 17.479C21.636 17.6022 21.5753 17.7629 21.5754 17.9296V27.4156C21.5758 27.7466 21.4962 28.0726 21.3438 28.3644C21.1915 28.6562 20.971 28.9049 20.7022 29.0881L15.4732 32.6618C15.1513 32.8822 14.7729 32.9999 14.3858 33ZM2.96096 3.34014C2.83433 3.34016 2.71044 3.37788 2.60433 3.44872C2.49822 3.51957 2.41447 3.62048 2.36326 3.7392C2.31204 3.85792 2.29557 3.98934 2.31584 4.11748C2.33611 4.24562 2.39225 4.36496 2.47744 4.461L13.222 16.5776C13.5505 16.9473 13.7324 17.4296 13.732 17.9298V30.9893C13.732 31.1105 13.7641 31.2295 13.8249 31.3335C13.8857 31.4376 13.9729 31.5227 14.0772 31.5799C14.1814 31.6372 14.2989 31.6643 14.4171 31.6585C14.5352 31.6526 14.6496 31.614 14.748 31.5468L19.977 27.9731C20.0666 27.9121 20.1402 27.8292 20.191 27.7319C20.2418 27.6346 20.2683 27.526 20.2682 27.4156V17.9298C20.2678 17.4295 20.4497 16.9472 20.7783 16.5774L31.5227 4.461C31.6079 4.36495 31.664 4.24559 31.6843 4.11744C31.7046 3.98928 31.6881 3.85785 31.6369 3.73913C31.5856 3.6204 31.5018 3.51949 31.3957 3.44865C31.2896 3.37782 31.1657 3.34013 31.039 3.34014H2.96096Z" fill="white"/>
<path d="M2.96096 3.34014C2.83433 3.34016 2.71044 3.37788 2.60433 3.44872C2.49822 3.51957 2.41447 3.62048 2.36326 3.7392C2.31204 3.85792 2.29557 3.98934 2.31584 4.11748C2.33611 4.24562 2.39225 4.36496 2.47744 4.461L13.222 16.5776C13.5505 16.9473 13.7324 17.4296 13.732 17.9298V30.9893C13.732 31.1105 13.7641 31.2295 13.8249 31.3335C13.8857 31.4376 13.9729 31.5227 14.0772 31.5799C14.1814 31.6372 14.2989 31.6643 14.4171 31.6585C14.5352 31.6526 14.6496 31.614 14.748 31.5468L19.977 27.9731C20.0666 27.9121 20.1402 27.8292 20.191 27.7319C20.2418 27.6346 20.2683 27.526 20.2682 27.4156V17.9298C20.2678 17.4295 20.4497 16.9472 20.7783 16.5774L31.5227 4.461C31.6079 4.36495 31.664 4.24559 31.6843 4.11744C31.7046 3.98928 31.6881 3.85785 31.6369 3.73913C31.5856 3.6204 31.5018 3.51949 31.3957 3.44865C31.2896 3.37782 31.1657 3.34013 31.039 3.34014H2.96096Z" fill="white"/>
</g>
<defs>
<filter id="filter0_d" x="0" y="0" width="36" height="35" filterUnits="userSpaceOnUse" color-interpolation-filters="sRGB">
<feFlood flood-opacity="0" result="BackgroundImageFix"/>
<feColorMatrix in="SourceAlpha" type="matrix" values="0 0 0 0 0 0 0 0 0 0 0 0 0 0 0 0 0 0 127 0"/>
<feOffset dx="1"/>
<feGaussianBlur stdDeviation="1"/>
<feColorMatrix type="matrix" values="0 0 0 0 0 0 0 0 0 0 0 0 0 0 0 0 0 0 0.25 0"/>
<feBlend mode="normal" in2="BackgroundImageFix" result="effect1_dropShadow"/>
<feBlend mode="normal" in="SourceGraphic" in2="effect1_dropShadow" result="shape"/>
</filter>
</defs>
</svg>
