<svg width="31" height="31" viewBox="0 0 31 31" fill="none" xmlns="http://www.w3.org/2000/svg">
<path d="M0 15.5C0 24.0604 6.93959 31 15.5 31V0C6.93959 0 0 6.93959 0 15.5Z" fill="#4A7DA7"/>
<path fill-rule="evenodd" clip-rule="evenodd" d="M14 30.9284C14.4936 30.9757 14.994 31 15.5 31C16.006 31 16.5064 30.9757 17 30.9284C24.8566 30.1739 31 23.5544 31 15.5C31 7.44562 24.8566 0.8261 17 0.0716488C16.5064 0.0242491 16.006 0 15.5 0C14.994 0 14.4936 0.0242491 14 0.0716488C6.1434 0.8261 0 7.44562 0 15.5C0 23.5544 6.1434 30.1739 14 30.9284ZM17 27.9109C23.1963 27.1699 28 21.8959 28 15.5C28 9.10408 23.1963 3.83011 17 3.08908V27.9109ZM14 3.08908V27.9109C7.80366 27.1699 3 21.8959 3 15.5C3 9.10408 7.80366 3.83011 14 3.08908Z" fill="#4A7DA7"/>
</svg>
