<svg width="12" height="12" viewBox="0 0 12 12" fill="none" xmlns="http://www.w3.org/2000/svg">
<rect width="12" height="12" rx="2" fill="#4E4F55"/>
<path d="M3.64286 5.0625H3.96429V4.07812C3.96429 2.93242 4.87768 2 6 2C7.12232 2 8.03571 2.93242 8.03571 4.07812V5.0625H8.35714C8.71205 5.0625 9 5.35645 9 5.71875V8.34375C9 8.70605 8.71205 9 8.35714 9H3.64286C3.28795 9 3 8.70605 3 8.34375V5.71875C3 5.35645 3.28795 5.0625 3.64286 5.0625ZM5.03571 5.0625H6.96429V4.07812C6.96429 3.53535 6.5317 3.09375 6 3.09375C5.4683 3.09375 5.03571 3.53535 5.03571 4.07812V5.0625Z" fill="white"/>
</svg>
