<svg width="47" height="47" viewBox="0 0 47 47" fill="none" xmlns="http://www.w3.org/2000/svg">
<rect x="1.1" y="1.1" width="44.8" height="44.8" rx="7.9" stroke="#9D9D9D" stroke-width="1.8"/>
<rect x="1.1" y="1.1" width="44.8" height="44.8" rx="7.9" stroke="url(#paint0_linear)" stroke-width="1.8"/>
<path d="M11 10C11 14.0041 14.198 17.25 18.1429 17.25H35.9881C35.9947 17.25 36 17.2446 36 17.2379C36 13.2405 32.8074 10 28.869 10H11Z" fill="url(#paint1_linear)"/>
<path d="M36 31.7621C36 35.7595 32.8074 39 28.869 39H11C11 34.9959 14.198 31.75 18.1429 31.75H35.9881C35.9947 31.75 36 31.7554 36 31.7621Z" fill="url(#paint2_linear)"/>
<path d="M36 28.125C36 28.7923 35.467 29.3333 34.8095 29.3333H22.9048C21.5898 29.3333 20.5238 28.2514 20.5238 26.9167V19.6667H33.619C34.934 19.6667 36 20.7486 36 22.0833V28.125Z" fill="url(#paint3_linear)"/>
<defs>
<linearGradient id="paint0_linear" x1="15.579" y1="2" x2="33.8034" y2="45.4249" gradientUnits="userSpaceOnUse">
<stop stop-color="#C805C0"/>
<stop offset="0.510417" stop-color="#D74D58"/>
<stop offset="1" stop-color="#FBCA1F"/>
</linearGradient>
<linearGradient id="paint1_linear" x1="18.8947" y1="10" x2="32.4506" y2="37.8454" gradientUnits="userSpaceOnUse">
<stop stop-color="#C805C0"/>
<stop offset="0.510417" stop-color="#D74D58"/>
<stop offset="1" stop-color="#FBCA1F"/>
</linearGradient>
<linearGradient id="paint2_linear" x1="18.8947" y1="10" x2="32.4506" y2="37.8454" gradientUnits="userSpaceOnUse">
<stop stop-color="#C805C0"/>
<stop offset="0.510417" stop-color="#D74D58"/>
<stop offset="1" stop-color="#FBCA1F"/>
</linearGradient>
<linearGradient id="paint3_linear" x1="18.8947" y1="10" x2="32.4506" y2="37.8454" gradientUnits="userSpaceOnUse">
<stop stop-color="#C805C0"/>
<stop offset="0.510417" stop-color="#D74D58"/>
<stop offset="1" stop-color="#FBCA1F"/>
</linearGradient>
</defs>
</svg>
