<svg width="182" height="46" viewBox="0 0 182 46" fill="none" xmlns="http://www.w3.org/2000/svg">
<rect x="1.1" y="7.1" width="34.8" height="34.8" rx="7.9" stroke="#9D9D9D" stroke-width="1.8"/>
<rect x="1.1" y="7.1" width="34.8" height="34.8" rx="7.9" stroke="url(#paint0_linear)" stroke-width="1.8"/>
<path d="M51.712 34.48C50.624 34.48 49.6107 34.2987 48.672 33.936C47.7547 33.5733 46.9653 33.0613 46.304 32.4C45.664 31.7173 45.2053 30.9173 44.928 30L48.256 29.136C48.5333 29.8613 48.9813 30.4267 49.6 30.832C50.2187 31.2373 50.9333 31.44 51.744 31.44C52.576 31.44 53.2587 31.248 53.792 30.864C54.3253 30.4587 54.592 29.9467 54.592 29.328C54.592 28.7947 54.3787 28.3467 53.952 27.984C53.5253 27.6213 52.832 27.3547 51.872 27.184L50.816 26.992C49.024 26.672 47.6693 26.096 46.752 25.264C45.856 24.432 45.408 23.3653 45.408 22.064C45.408 21.0187 45.6747 20.1013 46.208 19.312C46.7413 18.5227 47.4773 17.904 48.416 17.456C49.3547 17.008 50.432 16.784 51.648 16.784C52.6933 16.784 53.6533 16.9653 54.528 17.328C55.4027 17.6907 56.1387 18.2027 56.736 18.864C57.3333 19.5253 57.76 20.304 58.016 21.2L54.72 22C54.464 21.3173 54.0587 20.784 53.504 20.4C52.9707 19.9947 52.3413 19.792 51.616 19.792C50.8693 19.792 50.2507 19.984 49.76 20.368C49.2693 20.7307 49.024 21.2 49.024 21.776C49.024 22.2667 49.2373 22.672 49.664 22.992C50.112 23.312 50.8587 23.568 51.904 23.76L52.96 23.952C54.6667 24.2507 55.9787 24.8373 56.896 25.712C57.8133 26.5867 58.272 27.6747 58.272 28.976C58.272 29.7653 58.112 30.5013 57.792 31.184C57.472 31.8453 57.0133 32.432 56.416 32.944C55.84 33.4347 55.1467 33.808 54.336 34.064C53.5467 34.3413 52.672 34.48 51.712 34.48ZM67.7925 34.48C66.5552 34.48 65.4138 34.2667 64.3685 33.84C63.3445 33.392 62.4485 32.7733 61.6805 31.984C60.9125 31.1947 60.3152 30.2667 59.8885 29.2C59.4832 28.112 59.2805 26.9173 59.2805 25.616C59.2805 24.3573 59.4832 23.1947 59.8885 22.128C60.3152 21.0613 60.8912 20.1333 61.6165 19.344C62.3632 18.5333 63.2378 17.904 64.2405 17.456C65.2432 17.008 66.3312 16.784 67.5045 16.784C68.6778 16.784 69.7445 16.9973 70.7045 17.424C71.6858 17.8293 72.5285 18.416 73.2325 19.184C73.9578 19.952 74.5125 20.8693 74.8965 21.936C75.2805 22.9813 75.4725 24.144 75.4725 25.424V26.512H63.0885C63.1952 27.4933 63.4512 28.3467 63.8565 29.072C64.2832 29.776 64.8272 30.32 65.4885 30.704C66.1498 31.088 66.9178 31.28 67.7925 31.28C69.5418 31.28 70.9072 30.5013 71.8885 28.944L75.1205 30.192C74.7365 31.0667 74.1712 31.8347 73.4245 32.496C72.6992 33.136 71.8458 33.6267 70.8645 33.968C69.9045 34.3093 68.8805 34.48 67.7925 34.48ZM67.5045 19.76C66.7578 19.76 66.0858 19.9307 65.4885 20.272C64.9125 20.6133 64.4218 21.0933 64.0165 21.712C63.6112 22.3307 63.3338 23.056 63.1845 23.888H71.6325C71.5045 23.056 71.2592 22.3307 70.8965 21.712C70.5338 21.0933 70.0538 20.6133 69.4565 20.272C68.8805 19.9307 68.2298 19.76 67.5045 19.76ZM84.5585 34.48C83.4492 34.48 82.4145 34.256 81.4545 33.808C80.5158 33.36 79.6945 32.7413 78.9905 31.952C78.2865 31.1627 77.7318 30.2347 77.3265 29.168C76.9425 28.1013 76.7505 26.9493 76.7505 25.712C76.7505 24.4533 76.9532 23.28 77.3585 22.192C77.7638 21.104 78.3292 20.1547 79.0545 19.344C79.7798 18.5333 80.6225 17.904 81.5825 17.456C82.5638 17.008 83.6198 16.784 84.7505 16.784C85.9238 16.784 86.9798 17.04 87.9185 17.552C88.8785 18.064 89.6465 18.7893 90.2225 19.728L90.3825 17.264H93.7425V40.336H90.0625V31.568C89.4652 32.4853 88.6865 33.2 87.7265 33.712C86.7665 34.224 85.7105 34.48 84.5585 34.48ZM85.3265 31.152C86.2438 31.152 87.0652 30.9173 87.7905 30.448C88.5158 29.9573 89.0812 29.296 89.4865 28.464C89.9132 27.632 90.1265 26.6933 90.1265 25.648C90.1265 24.5813 89.9132 23.632 89.4865 22.8C89.0812 21.968 88.5158 21.3173 87.7905 20.848C87.0652 20.3573 86.2438 20.112 85.3265 20.112C84.4092 20.112 83.5878 20.3573 82.8625 20.848C82.1372 21.3173 81.5612 21.968 81.1345 22.8C80.7292 23.632 80.5265 24.5813 80.5265 25.648C80.5265 26.6933 80.7292 27.632 81.1345 28.464C81.5612 29.296 82.1372 29.9573 82.8625 30.448C83.5878 30.9173 84.4092 31.152 85.3265 31.152ZM103.785 34.48C102.292 34.48 100.991 34.16 99.8812 33.52C98.7932 32.88 97.9399 31.9733 97.3212 30.8C96.7239 29.6053 96.4252 28.208 96.4252 26.608V17.264H100.105V26.672C100.105 28.0587 100.436 29.1573 101.097 29.968C101.759 30.7573 102.665 31.152 103.817 31.152C104.969 31.152 105.876 30.7573 106.537 29.968C107.199 29.1573 107.529 28.0587 107.529 26.672V17.264H111.209V26.608C111.209 28.1867 110.9 29.5733 110.281 30.768C109.684 31.9413 108.831 32.8587 107.721 33.52C106.612 34.16 105.3 34.48 103.785 34.48ZM121.671 34.48C120.434 34.48 119.293 34.2667 118.247 33.84C117.223 33.392 116.327 32.7733 115.559 31.984C114.791 31.1947 114.194 30.2667 113.767 29.2C113.362 28.112 113.159 26.9173 113.159 25.616C113.159 24.3573 113.362 23.1947 113.767 22.128C114.194 21.0613 114.77 20.1333 115.495 19.344C116.242 18.5333 117.117 17.904 118.119 17.456C119.122 17.008 120.21 16.784 121.383 16.784C122.557 16.784 123.623 16.9973 124.583 17.424C125.565 17.8293 126.407 18.416 127.111 19.184C127.837 19.952 128.391 20.8693 128.775 21.936C129.159 22.9813 129.351 24.144 129.351 25.424V26.512H116.967C117.074 27.4933 117.33 28.3467 117.735 29.072C118.162 29.776 118.706 30.32 119.367 30.704C120.029 31.088 120.797 31.28 121.671 31.28C123.421 31.28 124.786 30.5013 125.767 28.944L128.999 30.192C128.615 31.0667 128.05 31.8347 127.303 32.496C126.578 33.136 125.725 33.6267 124.743 33.968C123.783 34.3093 122.759 34.48 121.671 34.48ZM121.383 19.76C120.637 19.76 119.965 19.9307 119.367 20.272C118.791 20.6133 118.301 21.0933 117.895 21.712C117.49 22.3307 117.213 23.056 117.063 23.888H125.511C125.383 23.056 125.138 22.3307 124.775 21.712C124.413 21.0933 123.933 20.6133 123.335 20.272C122.759 19.9307 122.109 19.76 121.383 19.76ZM131.209 34V17.264H134.569L134.697 19.568C135.188 18.7147 135.87 18.0427 136.745 17.552C137.641 17.04 138.665 16.784 139.817 16.784C141.076 16.784 142.164 17.0827 143.081 17.68C144.02 18.2773 144.745 19.12 145.257 20.208C145.769 21.296 146.025 22.576 146.025 24.048V34H142.345V24.464C142.345 23.0987 142.036 22.032 141.417 21.264C140.82 20.496 139.977 20.112 138.889 20.112C138.121 20.112 137.428 20.2933 136.809 20.656C136.212 21.0187 135.742 21.5093 135.401 22.128C135.06 22.7467 134.889 23.4613 134.889 24.272V34H131.209ZM156.262 34.48C155.068 34.48 153.969 34.2667 152.966 33.84C151.964 33.392 151.089 32.784 150.342 32.016C149.596 31.2267 149.009 30.2987 148.582 29.232C148.177 28.1653 147.974 27.0027 147.974 25.744C147.974 24.4853 148.188 23.312 148.614 22.224C149.041 21.136 149.628 20.1867 150.374 19.376C151.121 18.5653 151.996 17.936 152.998 17.488C154.022 17.0187 155.132 16.784 156.326 16.784C157.478 16.784 158.534 16.9973 159.494 17.424C160.454 17.8293 161.276 18.416 161.958 19.184C162.662 19.9307 163.164 20.816 163.462 21.84L159.974 22.672C159.612 21.8613 159.1 21.232 158.438 20.784C157.798 20.336 157.073 20.112 156.262 20.112C155.409 20.112 154.641 20.3573 153.958 20.848C153.276 21.3387 152.732 22.0107 152.326 22.864C151.942 23.696 151.75 24.6453 151.75 25.712C151.75 26.7573 151.942 27.696 152.326 28.528C152.71 29.3387 153.233 29.9787 153.894 30.448C154.577 30.9173 155.366 31.152 156.262 31.152C157.116 31.152 157.894 30.9387 158.598 30.512C159.302 30.064 159.825 29.4347 160.166 28.624L163.622 29.424C163.324 30.448 162.812 31.344 162.086 32.112C161.361 32.8587 160.497 33.4453 159.494 33.872C158.492 34.2773 157.414 34.48 156.262 34.48ZM173.019 34.48C171.781 34.48 170.64 34.2667 169.595 33.84C168.571 33.392 167.675 32.7733 166.907 31.984C166.139 31.1947 165.541 30.2667 165.115 29.2C164.709 28.112 164.507 26.9173 164.507 25.616C164.507 24.3573 164.709 23.1947 165.115 22.128C165.541 21.0613 166.117 20.1333 166.843 19.344C167.589 18.5333 168.464 17.904 169.467 17.456C170.469 17.008 171.557 16.784 172.731 16.784C173.904 16.784 174.971 16.9973 175.931 17.424C176.912 17.8293 177.755 18.416 178.459 19.184C179.184 19.952 179.739 20.8693 180.123 21.936C180.507 22.9813 180.699 24.144 180.699 25.424V26.512H168.315C168.421 27.4933 168.677 28.3467 169.083 29.072C169.509 29.776 170.053 30.32 170.715 30.704C171.376 31.088 172.144 31.28 173.019 31.28C174.768 31.28 176.133 30.5013 177.115 28.944L180.347 30.192C179.963 31.0667 179.397 31.8347 178.651 32.496C177.925 33.136 177.072 33.6267 176.091 33.968C175.131 34.3093 174.107 34.48 173.019 34.48ZM172.731 19.76C171.984 19.76 171.312 19.9307 170.715 20.272C170.139 20.6133 169.648 21.0933 169.243 21.712C168.837 22.3307 168.56 23.056 168.411 23.888H176.859C176.731 23.056 176.485 22.3307 176.123 21.712C175.76 21.0933 175.28 20.6133 174.683 20.272C174.107 19.9307 173.456 19.76 172.731 19.76Z" fill="#222325"/>
<path d="M9 14C9 17.0376 11.4305 19.5 14.4286 19.5H27.991C27.996 19.5 28 19.4959 28 19.4908C28 16.4583 25.5736 14 22.5805 14H9Z" fill="url(#paint1_linear)"/>
<path d="M28 30.5092C28 33.5417 25.5736 36 22.5805 36H9C9 32.9624 11.4305 30.5 14.4286 30.5H27.991C27.996 30.5 28 30.5041 28 30.5092Z" fill="url(#paint2_linear)"/>
<path d="M28 27.75C28 28.2563 27.5949 28.6667 27.0952 28.6667H18.0476C17.0482 28.6667 16.2381 27.8459 16.2381 26.8333V21.3333H26.1905C27.1898 21.3333 28 22.1541 28 23.1667V27.75Z" fill="url(#paint3_linear)"/>
<defs>
<linearGradient id="paint0_linear" x1="12.4211" y1="8" x2="26.4073" y2="41.3261" gradientUnits="userSpaceOnUse">
<stop stop-color="#C805C0"/>
<stop offset="0.510417" stop-color="#D74D58"/>
<stop offset="1" stop-color="#FBCA1F"/>
</linearGradient>
<linearGradient id="paint1_linear" x1="15" y1="14" x2="25.2722" y2="35.1388" gradientUnits="userSpaceOnUse">
<stop stop-color="#C805C0"/>
<stop offset="0.510417" stop-color="#D74D58"/>
<stop offset="1" stop-color="#FBCA1F"/>
</linearGradient>
<linearGradient id="paint2_linear" x1="15" y1="14" x2="25.2722" y2="35.1388" gradientUnits="userSpaceOnUse">
<stop stop-color="#C805C0"/>
<stop offset="0.510417" stop-color="#D74D58"/>
<stop offset="1" stop-color="#FBCA1F"/>
</linearGradient>
<linearGradient id="paint3_linear" x1="15" y1="14" x2="25.2722" y2="35.1388" gradientUnits="userSpaceOnUse">
<stop stop-color="#C805C0"/>
<stop offset="0.510417" stop-color="#D74D58"/>
<stop offset="1" stop-color="#FBCA1F"/>
</linearGradient>
</defs>
</svg>
