<svg width="18" height="18" viewBox="0 0 18 18" fill="none" xmlns="http://www.w3.org/2000/svg">
<rect width="18" height="18" rx="9" fill="#FEECEE"/>
<path fill-rule="evenodd" clip-rule="evenodd" d="M10.4142 8.99999L12.5355 11.1213C12.9261 11.5118 12.9261 12.145 12.5355 12.5355C12.145 12.9261 11.5118 12.9261 11.1213 12.5355L9 10.4142L7.58579 8.99999L5.46447 6.87867C5.07394 6.48815 5.07394 5.85498 5.46447 5.46446C5.85499 5.07393 6.48816 5.07393 6.87868 5.46446L9 7.58578L10.4142 8.99999Z" fill="#F5707C"/>
<path d="M12.5355 5.46446C12.145 5.07393 11.5118 5.07393 11.1213 5.46446L9 7.58578L10.4142 8.99999L12.5355 6.87867C12.9261 6.48815 12.9261 5.85498 12.5355 5.46446Z" fill="#F5707C"/>
<path d="M5.46447 12.5355C5.85499 12.9261 6.48816 12.9261 6.87868 12.5355L9 10.4142L7.58579 8.99999L5.46447 11.1213C5.07394 11.5118 5.07394 12.145 5.46447 12.5355Z" fill="#F5707C"/>
</svg>
