<svg width="12" height="12" viewBox="0 0 12 12" fill="none" xmlns="http://www.w3.org/2000/svg">
<rect width="12" height="12" rx="2" fill="#4E4F55"/>
<path d="M3 5.5C2.72386 5.5 2.5 5.72386 2.5 6C2.5 6.27614 2.72386 6.5 3 6.5V5.5ZM9 6L9.34197 6.36477C9.4428 6.27024 9.5 6.1382 9.5 6C9.5 5.8618 9.4428 5.72976 9.34197 5.63523L9 6ZM6.14197 2.63523C5.94051 2.44637 5.6241 2.45657 5.43523 2.65803C5.24637 2.85949 5.25657 3.1759 5.45803 3.36477L6.14197 2.63523ZM5.45803 8.63523C5.25657 8.8241 5.24637 9.14051 5.43523 9.34197C5.6241 9.54343 5.94051 9.55363 6.14197 9.36477L5.45803 8.63523ZM9.34197 5.63523L6.14197 2.63523L5.45803 3.36477L8.65803 6.36477L9.34197 5.63523ZM8.65803 5.63523L5.45803 8.63523L6.14197 9.36477L9.34197 6.36477L8.65803 5.63523ZM3 6.5H9V5.5H3V6.5Z" fill="white"/>
</svg>
