<svg width="137" height="25" viewBox="0 0 137 25" fill="none" xmlns="http://www.w3.org/2000/svg">
<path d="M7.712 18.48C6.624 18.48 5.61067 18.2987 4.672 17.936C3.75467 17.5733 2.96533 17.0613 2.304 16.4C1.664 15.7173 1.20533 14.9173 0.928 14L4.256 13.136C4.53333 13.8613 4.98133 14.4267 5.6 14.832C6.21867 15.2373 6.93333 15.44 7.744 15.44C8.576 15.44 9.25867 15.248 9.792 14.864C10.3253 14.4587 10.592 13.9467 10.592 13.328C10.592 12.7947 10.3787 12.3467 9.952 11.984C9.52533 11.6213 8.832 11.3547 7.872 11.184L6.816 10.992C5.024 10.672 3.66933 10.096 2.752 9.264C1.856 8.432 1.408 7.36533 1.408 6.064C1.408 5.01867 1.67467 4.10133 2.208 3.312C2.74133 2.52267 3.47733 1.904 4.416 1.456C5.35467 1.008 6.432 0.783998 7.648 0.783998C8.69333 0.783998 9.65333 0.965332 10.528 1.328C11.4027 1.69067 12.1387 2.20267 12.736 2.864C13.3333 3.52533 13.76 4.304 14.016 5.2L10.72 6C10.464 5.31733 10.0587 4.784 9.504 4.4C8.97067 3.99467 8.34133 3.792 7.616 3.792C6.86933 3.792 6.25067 3.984 5.76 4.368C5.26933 4.73067 5.024 5.2 5.024 5.776C5.024 6.26667 5.23733 6.672 5.664 6.992C6.112 7.312 6.85867 7.568 7.904 7.76L8.96 7.952C10.6667 8.25067 11.9787 8.83733 12.896 9.712C13.8133 10.5867 14.272 11.6747 14.272 12.976C14.272 13.7653 14.112 14.5013 13.792 15.184C13.472 15.8453 13.0133 16.432 12.416 16.944C11.84 17.4347 11.1467 17.808 10.336 18.064C9.54667 18.3413 8.672 18.48 7.712 18.48ZM23.7925 18.48C22.5552 18.48 21.4138 18.2667 20.3685 17.84C19.3445 17.392 18.4485 16.7733 17.6805 15.984C16.9125 15.1947 16.3152 14.2667 15.8885 13.2C15.4832 12.112 15.2805 10.9173 15.2805 9.616C15.2805 8.35733 15.4832 7.19467 15.8885 6.128C16.3152 5.06133 16.8912 4.13333 17.6165 3.344C18.3632 2.53333 19.2378 1.904 20.2405 1.456C21.2432 1.008 22.3312 0.783998 23.5045 0.783998C24.6778 0.783998 25.7445 0.997332 26.7045 1.424C27.6858 1.82933 28.5285 2.416 29.2325 3.184C29.9578 3.952 30.5125 4.86933 30.8965 5.936C31.2805 6.98133 31.4725 8.144 31.4725 9.424V10.512H19.0885C19.1952 11.4933 19.4512 12.3467 19.8565 13.072C20.2832 13.776 20.8272 14.32 21.4885 14.704C22.1498 15.088 22.9178 15.28 23.7925 15.28C25.5418 15.28 26.9072 14.5013 27.8885 12.944L31.1205 14.192C30.7365 15.0667 30.1712 15.8347 29.4245 16.496C28.6992 17.136 27.8458 17.6267 26.8645 17.968C25.9045 18.3093 24.8805 18.48 23.7925 18.48ZM23.5045 3.76C22.7578 3.76 22.0858 3.93067 21.4885 4.272C20.9125 4.61333 20.4218 5.09333 20.0165 5.712C19.6112 6.33067 19.3338 7.056 19.1845 7.888H27.6325C27.5045 7.056 27.2592 6.33067 26.8965 5.712C26.5338 5.09333 26.0538 4.61333 25.4565 4.272C24.8805 3.93067 24.2298 3.76 23.5045 3.76ZM40.5585 18.48C39.4492 18.48 38.4145 18.256 37.4545 17.808C36.5158 17.36 35.6945 16.7413 34.9905 15.952C34.2865 15.1627 33.7318 14.2347 33.3265 13.168C32.9425 12.1013 32.7505 10.9493 32.7505 9.712C32.7505 8.45333 32.9532 7.28 33.3585 6.192C33.7638 5.104 34.3292 4.15467 35.0545 3.344C35.7798 2.53333 36.6225 1.904 37.5825 1.456C38.5638 1.008 39.6198 0.783998 40.7505 0.783998C41.9238 0.783998 42.9798 1.04 43.9185 1.552C44.8785 2.064 45.6465 2.78933 46.2225 3.728L46.3825 1.264H49.7425V24.336H46.0625V15.568C45.4652 16.4853 44.6865 17.2 43.7265 17.712C42.7665 18.224 41.7105 18.48 40.5585 18.48ZM41.3265 15.152C42.2438 15.152 43.0652 14.9173 43.7905 14.448C44.5158 13.9573 45.0812 13.296 45.4865 12.464C45.9132 11.632 46.1265 10.6933 46.1265 9.648C46.1265 8.58133 45.9132 7.632 45.4865 6.8C45.0812 5.968 44.5158 5.31733 43.7905 4.848C43.0652 4.35733 42.2438 4.112 41.3265 4.112C40.4092 4.112 39.5878 4.35733 38.8625 4.848C38.1372 5.31733 37.5612 5.968 37.1345 6.8C36.7292 7.632 36.5265 8.58133 36.5265 9.648C36.5265 10.6933 36.7292 11.632 37.1345 12.464C37.5612 13.296 38.1372 13.9573 38.8625 14.448C39.5878 14.9173 40.4092 15.152 41.3265 15.152ZM59.7853 18.48C58.2919 18.48 56.9906 18.16 55.8812 17.52C54.7932 16.88 53.9399 15.9733 53.3212 14.8C52.7239 13.6053 52.4252 12.208 52.4252 10.608V1.264H56.1052V10.672C56.1052 12.0587 56.4359 13.1573 57.0972 13.968C57.7586 14.7573 58.6653 15.152 59.8173 15.152C60.9693 15.152 61.8759 14.7573 62.5373 13.968C63.1986 13.1573 63.5293 12.0587 63.5293 10.672V1.264H67.2093V10.608C67.2093 12.1867 66.8999 13.5733 66.2813 14.768C65.6839 15.9413 64.8306 16.8587 63.7213 17.52C62.6119 18.16 61.2999 18.48 59.7853 18.48ZM77.6712 18.48C76.4339 18.48 75.2926 18.2667 74.2472 17.84C73.2232 17.392 72.3272 16.7733 71.5592 15.984C70.7912 15.1947 70.1939 14.2667 69.7672 13.2C69.3619 12.112 69.1592 10.9173 69.1592 9.616C69.1592 8.35733 69.3619 7.19467 69.7672 6.128C70.1939 5.06133 70.7699 4.13333 71.4952 3.344C72.2419 2.53333 73.1166 1.904 74.1192 1.456C75.1219 1.008 76.2099 0.783998 77.3832 0.783998C78.5566 0.783998 79.6232 0.997332 80.5832 1.424C81.5646 1.82933 82.4072 2.416 83.1112 3.184C83.8366 3.952 84.3912 4.86933 84.7752 5.936C85.1592 6.98133 85.3512 8.144 85.3512 9.424V10.512H72.9672C73.0739 11.4933 73.3299 12.3467 73.7352 13.072C74.1619 13.776 74.7059 14.32 75.3672 14.704C76.0286 15.088 76.7966 15.28 77.6712 15.28C79.4206 15.28 80.7859 14.5013 81.7672 12.944L84.9992 14.192C84.6152 15.0667 84.0499 15.8347 83.3032 16.496C82.5779 17.136 81.7246 17.6267 80.7432 17.968C79.7832 18.3093 78.7592 18.48 77.6712 18.48ZM77.3832 3.76C76.6366 3.76 75.9646 3.93067 75.3672 4.272C74.7912 4.61333 74.3006 5.09333 73.8952 5.712C73.4899 6.33067 73.2126 7.056 73.0632 7.888H81.5112C81.3832 7.056 81.1379 6.33067 80.7752 5.712C80.4126 5.09333 79.9326 4.61333 79.3352 4.272C78.7592 3.93067 78.1086 3.76 77.3832 3.76ZM87.209 18V1.264H90.569L90.697 3.568C91.1877 2.71467 91.8703 2.04267 92.745 1.552C93.641 1.04 94.665 0.783998 95.817 0.783998C97.0757 0.783998 98.1637 1.08267 99.081 1.68C100.02 2.27733 100.745 3.12 101.257 4.208C101.769 5.296 102.025 6.576 102.025 8.048V18H98.345V8.464C98.345 7.09867 98.0357 6.032 97.417 5.264C96.8197 4.496 95.977 4.112 94.889 4.112C94.121 4.112 93.4277 4.29333 92.809 4.656C92.2117 5.01867 91.7423 5.50933 91.401 6.128C91.0597 6.74667 90.889 7.46133 90.889 8.272V18H87.209ZM112.262 18.48C111.068 18.48 109.969 18.2667 108.966 17.84C107.964 17.392 107.089 16.784 106.342 16.016C105.596 15.2267 105.009 14.2987 104.582 13.232C104.177 12.1653 103.974 11.0027 103.974 9.744C103.974 8.48533 104.188 7.312 104.614 6.224C105.041 5.136 105.628 4.18667 106.374 3.376C107.121 2.56533 107.996 1.936 108.998 1.488C110.022 1.01867 111.132 0.783998 112.326 0.783998C113.478 0.783998 114.534 0.997332 115.494 1.424C116.454 1.82933 117.276 2.416 117.958 3.184C118.662 3.93067 119.164 4.816 119.462 5.84L115.974 6.672C115.612 5.86133 115.1 5.232 114.438 4.784C113.798 4.336 113.073 4.112 112.262 4.112C111.409 4.112 110.641 4.35733 109.958 4.848C109.276 5.33867 108.732 6.01067 108.326 6.864C107.942 7.696 107.75 8.64533 107.75 9.712C107.75 10.7573 107.942 11.696 108.326 12.528C108.71 13.3387 109.233 13.9787 109.894 14.448C110.577 14.9173 111.366 15.152 112.262 15.152C113.116 15.152 113.894 14.9387 114.598 14.512C115.302 14.064 115.825 13.4347 116.166 12.624L119.622 13.424C119.324 14.448 118.812 15.344 118.086 16.112C117.361 16.8587 116.497 17.4453 115.494 17.872C114.492 18.2773 113.414 18.48 112.262 18.48ZM129.019 18.48C127.781 18.48 126.64 18.2667 125.595 17.84C124.571 17.392 123.675 16.7733 122.907 15.984C122.139 15.1947 121.541 14.2667 121.115 13.2C120.709 12.112 120.507 10.9173 120.507 9.616C120.507 8.35733 120.709 7.19467 121.115 6.128C121.541 5.06133 122.117 4.13333 122.843 3.344C123.589 2.53333 124.464 1.904 125.467 1.456C126.469 1.008 127.557 0.783998 128.731 0.783998C129.904 0.783998 130.971 0.997332 131.931 1.424C132.912 1.82933 133.755 2.416 134.459 3.184C135.184 3.952 135.739 4.86933 136.123 5.936C136.507 6.98133 136.699 8.144 136.699 9.424V10.512H124.315C124.421 11.4933 124.677 12.3467 125.083 13.072C125.509 13.776 126.053 14.32 126.715 14.704C127.376 15.088 128.144 15.28 129.019 15.28C130.768 15.28 132.133 14.5013 133.115 12.944L136.347 14.192C135.963 15.0667 135.397 15.8347 134.651 16.496C133.925 17.136 133.072 17.6267 132.091 17.968C131.131 18.3093 130.107 18.48 129.019 18.48ZM128.731 3.76C127.984 3.76 127.312 3.93067 126.715 4.272C126.139 4.61333 125.648 5.09333 125.243 5.712C124.837 6.33067 124.56 7.056 124.411 7.888H132.859C132.731 7.056 132.485 6.33067 132.123 5.712C131.76 5.09333 131.28 4.61333 130.683 4.272C130.107 3.93067 129.456 3.76 128.731 3.76Z" fill="#888888"/>
</svg>
