<svg width="18" height="19" viewBox="0 0 18 19" fill="none" xmlns="http://www.w3.org/2000/svg">
<path fill-rule="evenodd" clip-rule="evenodd" d="M8.316 12.8826C8.70066 12.522 9.29922 12.522 9.68388 12.8826L14.9025 17.7751C15.3054 18.1528 15.9383 18.1324 16.316 17.7295L17.6839 16.2704C18.0616 15.8675 18.0412 15.2347 17.6383 14.857L12.7023 10.2295C12.2809 9.83443 12.2809 9.16551 12.7023 8.77043L17.6383 4.14299C18.0412 3.76526 18.0616 3.13242 17.6839 2.72951L16.316 1.27043C15.9383 0.867519 15.3054 0.847105 14.9025 1.22484L9.68388 6.11731C9.29922 6.47793 8.70066 6.47793 8.316 6.11731L3.09736 1.22484C2.69445 0.847105 2.06161 0.867519 1.68388 1.27043L0.315997 2.72951C-0.0617326 3.13242 -0.0413182 3.76526 0.361594 4.14299L5.29754 8.77043C5.71895 9.16551 5.71895 9.83443 5.29754 10.2295L0.361594 14.857C-0.0413178 15.2347 -0.061732 15.8675 0.315998 16.2704L1.68388 17.7295C2.06161 18.1324 2.69445 18.1528 3.09736 17.7751L8.316 12.8826Z" fill="white"/>
</svg>
