<svg width="31" height="31" viewBox="0 0 31 31" fill="none" xmlns="http://www.w3.org/2000/svg">
<g clip-path="url(#clip0)">
<path d="M2.502 16.135C2.148 16.135 1.812 16.072 1.494 15.946C1.182 15.82 0.912 15.631 0.684 15.379C0.462 15.127 0.306 14.815 0.216 14.443L1.404 14.236C1.482 14.482 1.614 14.674 1.8 14.812C1.986 14.95 2.211 15.019 2.475 15.019C2.667 15.019 2.835 14.983 2.979 14.911C3.129 14.839 3.246 14.743 3.33 14.623C3.414 14.497 3.456 14.35 3.456 14.182C3.456 14.02 3.414 13.879 3.33 13.759C3.246 13.633 3.126 13.537 2.97 13.471C2.82 13.399 2.646 13.363 2.448 13.363H1.791V12.265H2.385C2.577 12.265 2.742 12.232 2.88 12.166C3.024 12.1 3.135 12.01 3.213 11.896C3.291 11.776 3.33 11.641 3.33 11.491C3.33 11.281 3.252 11.11 3.096 10.978C2.946 10.84 2.748 10.771 2.502 10.771C2.274 10.771 2.07 10.837 1.89 10.969C1.716 11.095 1.593 11.284 1.521 11.536L0.333 11.329C0.399 10.999 0.534 10.708 0.738 10.456C0.948 10.204 1.209 10.009 1.521 9.871C1.833 9.727 2.178 9.655 2.556 9.655C2.844 9.655 3.111 9.697 3.357 9.781C3.609 9.865 3.828 9.985 4.014 10.141C4.2 10.291 4.344 10.471 4.446 10.681C4.548 10.891 4.599 11.122 4.599 11.374C4.599 11.68 4.524 11.953 4.374 12.193C4.224 12.427 4.008 12.613 3.726 12.751C4.044 12.871 4.293 13.06 4.473 13.318C4.659 13.576 4.752 13.879 4.752 14.227C4.752 14.497 4.695 14.749 4.581 14.983C4.467 15.217 4.308 15.421 4.104 15.595C3.9 15.763 3.66 15.895 3.384 15.991C3.114 16.087 2.82 16.135 2.502 16.135ZM6.05145 16.036C5.90145 16.036 5.76645 16 5.64645 15.928C5.53245 15.856 5.43945 15.76 5.36745 15.64C5.29545 15.52 5.25945 15.388 5.25945 15.244C5.25945 15.1 5.29545 14.968 5.36745 14.848C5.43945 14.728 5.53245 14.632 5.64645 14.56C5.76645 14.488 5.90145 14.452 6.05145 14.452C6.20145 14.452 6.33345 14.488 6.44745 14.56C6.56745 14.632 6.66345 14.728 6.73545 14.848C6.80745 14.968 6.84345 15.1 6.84345 15.244C6.84345 15.388 6.80745 15.52 6.73545 15.64C6.66345 15.76 6.56745 15.856 6.44745 15.928C6.33345 16 6.20145 16.036 6.05145 16.036ZM6.05145 12.796C5.90145 12.796 5.76645 12.76 5.64645 12.688C5.53245 12.616 5.43945 12.52 5.36745 12.4C5.29545 12.28 5.25945 12.148 5.25945 12.004C5.25945 11.86 5.29545 11.728 5.36745 11.608C5.43945 11.488 5.53245 11.392 5.64645 11.32C5.76645 11.248 5.90145 11.212 6.05145 11.212C6.20145 11.212 6.33345 11.248 6.44745 11.32C6.56745 11.392 6.66345 11.488 6.73545 11.608C6.80745 11.728 6.84345 11.86 6.84345 12.004C6.84345 12.148 6.80745 12.28 6.73545 12.4C6.66345 12.52 6.56745 12.616 6.44745 12.688C6.33345 12.76 6.20145 12.796 6.05145 12.796ZM9.50323 16.135C9.13723 16.135 8.80123 16.069 8.49523 15.937C8.19523 15.799 7.94023 15.607 7.73023 15.361C7.52023 15.115 7.37623 14.824 7.29823 14.488L8.50423 14.299C8.58223 14.527 8.71123 14.704 8.89123 14.83C9.07723 14.956 9.28423 15.019 9.51223 15.019C9.70423 15.019 9.87523 14.977 10.0252 14.893C10.1752 14.809 10.2922 14.695 10.3762 14.551C10.4602 14.407 10.5022 14.242 10.5022 14.056C10.5022 13.876 10.4572 13.714 10.3672 13.57C10.2832 13.426 10.1662 13.315 10.0162 13.237C9.87223 13.153 9.70723 13.111 9.52123 13.111C9.35323 13.111 9.18823 13.144 9.02623 13.21C8.87023 13.276 8.74123 13.36 8.63923 13.462L7.62223 13.354V9.79H11.3392V10.96H8.82823V12.274C9.08623 12.094 9.40123 12.004 9.77323 12.004C10.0612 12.004 10.3282 12.055 10.5742 12.157C10.8202 12.259 11.0332 12.403 11.2132 12.589C11.3992 12.769 11.5432 12.982 11.6452 13.228C11.7472 13.468 11.7982 13.732 11.7982 14.02C11.7982 14.326 11.7382 14.608 11.6182 14.866C11.5042 15.124 11.3422 15.349 11.1322 15.541C10.9222 15.727 10.6762 15.874 10.3942 15.982C10.1182 16.084 9.82123 16.135 9.50323 16.135ZM13.8989 16.135C13.3349 16.135 12.8279 16 12.3779 15.73L12.7199 14.668C12.8519 14.758 13.0169 14.83 13.2149 14.884C13.4189 14.938 13.6289 14.965 13.8449 14.965C14.3429 14.965 14.7329 14.815 15.0149 14.515C15.3029 14.209 15.4709 13.753 15.5189 13.147C15.3749 13.345 15.1829 13.504 14.9429 13.624C14.7089 13.738 14.4329 13.795 14.1149 13.795C13.8209 13.795 13.5479 13.744 13.2959 13.642C13.0499 13.54 12.8339 13.399 12.6479 13.219C12.4619 13.033 12.3149 12.82 12.2069 12.58C12.1049 12.334 12.0539 12.067 12.0539 11.779C12.0539 11.479 12.1109 11.2 12.2249 10.942C12.3389 10.684 12.4979 10.459 12.7019 10.267C12.9119 10.075 13.1549 9.925 13.4309 9.817C13.7069 9.709 14.0069 9.655 14.3309 9.655C14.6909 9.655 15.0209 9.727 15.3209 9.871C15.6269 10.009 15.8909 10.213 16.1129 10.483C16.3349 10.747 16.5059 11.071 16.6259 11.455C16.7459 11.839 16.8059 12.274 16.8059 12.76C16.8059 13.258 16.7399 13.714 16.6079 14.128C16.4759 14.542 16.2839 14.899 16.0319 15.199C15.7799 15.499 15.4739 15.73 15.1139 15.892C14.7599 16.054 14.3549 16.135 13.8989 16.135ZM14.3309 12.742C14.5169 12.742 14.6849 12.7 14.8349 12.616C14.9849 12.532 15.1019 12.418 15.1859 12.274C15.2759 12.124 15.3209 11.956 15.3209 11.77C15.3209 11.578 15.2759 11.407 15.1859 11.257C15.1019 11.107 14.9849 10.987 14.8349 10.897C14.6849 10.807 14.5199 10.762 14.3399 10.762C14.1539 10.762 13.9859 10.807 13.8359 10.897C13.6859 10.981 13.5659 11.101 13.4759 11.257C13.3919 11.407 13.3499 11.575 13.3499 11.761C13.3499 11.947 13.3919 12.115 13.4759 12.265C13.5659 12.415 13.6829 12.532 13.8269 12.616C13.9769 12.7 14.1449 12.742 14.3309 12.742ZM19.1246 16V9.61H21.1766C21.6986 9.61 22.1456 9.697 22.5176 9.871C22.8956 10.039 23.1836 10.285 23.3816 10.609C23.5856 10.927 23.6876 11.314 23.6876 11.77C23.6876 12.094 23.6276 12.388 23.5076 12.652C23.3876 12.91 23.2166 13.135 22.9946 13.327C22.7726 13.513 22.5056 13.657 22.1936 13.759C21.8876 13.861 21.5456 13.912 21.1676 13.912C20.9456 13.912 20.7056 13.891 20.4476 13.849V16H19.1246ZM20.4476 10.744V12.724C20.6876 12.76 20.9096 12.778 21.1136 12.778C21.4976 12.778 21.7946 12.691 22.0046 12.517C22.2206 12.343 22.3286 12.091 22.3286 11.761C22.3286 11.437 22.2266 11.188 22.0226 11.014C21.8186 10.834 21.5276 10.744 21.1496 10.744H20.4476ZM24.2423 16V9.61H25.5023L27.5183 13.3L29.5433 9.61H30.7583V16H29.4623V11.959L27.9773 14.668H27.0233L25.5383 11.959V16H24.2423Z" fill="#20A766"/>
</g>
<defs>
<clipPath id="clip0">
<rect width="31" height="31" fill="white"/>
</clipPath>
</defs>
</svg>
