<svg width="31" height="31" viewBox="0 0 31 31" fill="none" xmlns="http://www.w3.org/2000/svg">
<path d="M15.5 5.52817C15.7284 5.52817 15.9474 5.43745 16.1089 5.27596C16.2704 5.11447 16.3611 4.89544 16.3611 4.66706V1.64456C16.3611 1.41618 16.2704 1.19715 16.1089 1.03566C15.9474 0.874171 15.7284 0.783447 15.5 0.783447C15.2716 0.783447 15.0526 0.874171 14.8911 1.03566C14.7296 1.19715 14.6389 1.41618 14.6389 1.64456V4.66706C14.6389 4.89544 14.7296 5.11447 14.8911 5.27596C15.0526 5.43745 15.2716 5.52817 15.5 5.52817Z" fill="#FBCA1F"/>
<path d="M15.5 25.4717C15.2716 25.4717 15.0526 25.5624 14.8911 25.7239C14.7296 25.8854 14.6389 26.1044 14.6389 26.3328V29.3553C14.6389 29.5837 14.7296 29.8027 14.8911 29.9642C15.0526 30.1257 15.2716 30.2164 15.5 30.2164C15.7284 30.2164 15.9474 30.1257 16.1089 29.9642C16.2704 29.8027 16.3611 29.5837 16.3611 29.3553V26.3328C16.3611 26.1044 16.2704 25.8854 16.1089 25.7239C15.9474 25.5624 15.7284 25.4717 15.5 25.4717Z" fill="#FBCA1F"/>
<path d="M7.23336 8.44741C7.39809 8.58848 7.60999 8.6622 7.82671 8.65382C8.04344 8.64545 8.24902 8.55561 8.40238 8.40225C8.55574 8.24889 8.64558 8.04331 8.65395 7.82659C8.66232 7.60987 8.5886 7.39797 8.44753 7.23324L6.31197 5.09769C6.14724 4.95661 5.93534 4.8829 5.71862 4.89127C5.5019 4.89964 5.29632 4.98948 5.14296 5.14284C4.9896 5.2962 4.89976 5.50178 4.89139 5.7185C4.88302 5.93522 4.95673 6.14712 5.09781 6.31185L7.23336 8.44741Z" fill="#FBCA1F"/>
<path d="M23.7667 22.5525C23.602 22.4114 23.3901 22.3377 23.1733 22.3461C22.9566 22.3545 22.751 22.4443 22.5977 22.5977C22.4443 22.751 22.3545 22.9566 22.3461 23.1733C22.3377 23.3901 22.4114 23.602 22.5525 23.7667L24.6881 25.9022C24.8528 26.0433 25.0647 26.117 25.2814 26.1087C25.4981 26.1003 25.7037 26.0104 25.8571 25.8571C26.0104 25.7037 26.1003 25.4981 26.1087 25.2814C26.117 25.0647 26.0433 24.8528 25.9022 24.6881L23.7667 22.5525Z" fill="#FBCA1F"/>
<path d="M5.52841 15.5C5.52841 15.2716 5.43769 15.0526 5.2762 14.8911C5.11471 14.7296 4.89568 14.6389 4.6673 14.6389H1.6448C1.41642 14.6389 1.19739 14.7296 1.03591 14.8911C0.874415 15.0526 0.783691 15.2716 0.783691 15.5C0.783691 15.7284 0.874415 15.9474 1.03591 16.1089C1.19739 16.2704 1.41642 16.3611 1.6448 16.3611H4.6673C4.89568 16.3611 5.11471 16.2704 5.2762 16.1089C5.43769 15.9474 5.52841 15.7284 5.52841 15.5Z" fill="#FBCA1F"/>
<path d="M29.3553 14.6389H26.3328C26.1044 14.6389 25.8854 14.7296 25.7239 14.8911C25.5624 15.0526 25.4717 15.2716 25.4717 15.5C25.4717 15.7284 25.5624 15.9474 25.7239 16.1089C25.8854 16.2704 26.1044 16.3611 26.3328 16.3611H29.3553C29.5837 16.3611 29.8027 16.2704 29.9642 16.1089C30.1257 15.9474 30.2164 15.7284 30.2164 15.5C30.2164 15.2716 30.1257 15.0526 29.9642 14.8911C29.8027 14.7296 29.5837 14.6389 29.3553 14.6389Z" fill="#FBCA1F"/>
<path d="M7.23336 22.5525L5.09781 24.6881C4.95673 24.8528 4.88302 25.0647 4.89139 25.2814C4.89976 25.4981 4.9896 25.7037 5.14296 25.8571C5.29632 26.0104 5.5019 26.1003 5.71862 26.1087C5.93534 26.117 6.14724 26.0433 6.31197 25.9022L8.44753 23.7667C8.5886 23.602 8.66232 23.3901 8.65395 23.1733C8.64558 22.9566 8.55574 22.751 8.40238 22.5977C8.24902 22.4443 8.04344 22.3545 7.82671 22.3461C7.60999 22.3377 7.39809 22.4114 7.23336 22.5525Z" fill="#FBCA1F"/>
<path d="M23.7667 8.44741L25.9022 6.31185C26.0433 6.14712 26.117 5.93522 26.1087 5.7185C26.1003 5.50178 26.0104 5.2962 25.8571 5.14284C25.7037 4.98948 25.4981 4.89964 25.2814 4.89127C25.0647 4.8829 24.8528 4.95661 24.6881 5.09769L22.5525 7.23324C22.4114 7.39797 22.3377 7.60987 22.3461 7.82659C22.3545 8.04331 22.4443 8.24889 22.5977 8.40225C22.751 8.55561 22.9566 8.64545 23.1733 8.65382C23.3901 8.6622 23.602 8.58848 23.7667 8.44741Z" fill="#FBCA1F"/>
<path d="M15.5 24.1111C20.2558 24.1111 24.1111 20.2558 24.1111 15.5C24.1111 10.7442 20.2558 6.88892 15.5 6.88892C10.7442 6.88892 6.88892 10.7442 6.88892 15.5C6.88892 20.2558 10.7442 24.1111 15.5 24.1111Z" fill="#FBCA1F"/>
</svg>
