<svg width="27" height="41" viewBox="0 0 27 41" fill="none" xmlns="http://www.w3.org/2000/svg">
<g filter="url(#filter0_d)">
<path d="M6.7963 2.83014C6.86638 2.59041 7.01182 2.37996 7.21083 2.23031C7.40984 2.08066 7.65172 1.99985 7.90023 2H17.0996C17.2818 2.00014 17.4612 2.04376 17.6233 2.12728C17.7854 2.2108 17.9254 2.33183 18.0318 2.48039C18.1383 2.62896 18.2081 2.80082 18.2355 2.98183C18.263 3.16284 18.2473 3.34782 18.1898 3.52153L14.5317 14.5596C14.3172 15.2068 14.7991 15.8742 15.4809 15.8742H22.8493C23.0646 15.874 23.2757 15.9347 23.4584 16.0492C23.6412 16.1638 23.7882 16.3276 23.8829 16.5221C23.9776 16.7165 24.016 16.9338 23.9939 17.1492C23.9718 17.3646 23.8899 17.5694 23.7577 17.7403L7.65875 38.5515C7.49382 38.7657 7.25932 38.9149 6.99616 38.9731C6.733 39.0312 6.45789 38.9946 6.21885 38.8696C5.9798 38.7446 5.792 38.5392 5.68821 38.2892C5.58443 38.0392 5.57125 37.7605 5.65098 37.5017L9.39741 25.2601C9.59412 24.6173 9.11336 23.9674 8.44119 23.9674H2.1506C1.97182 23.9676 1.79548 23.9257 1.63558 23.8453C1.47568 23.7649 1.33663 23.6482 1.22947 23.5043C1.12231 23.3604 1.04999 23.1934 1.01826 23.0165C0.986526 22.8396 0.996255 22.6577 1.04667 22.4852L6.7963 2.83014Z" fill="white" fill-opacity="0.9"/>
</g>
<defs>
<filter id="filter0_d" x="0" y="0" width="27" height="41" filterUnits="userSpaceOnUse" color-interpolation-filters="sRGB">
<feFlood flood-opacity="0" result="BackgroundImageFix"/>
<feColorMatrix in="SourceAlpha" type="matrix" values="0 0 0 0 0 0 0 0 0 0 0 0 0 0 0 0 0 0 127 0"/>
<feOffset dx="1"/>
<feGaussianBlur stdDeviation="1"/>
<feColorMatrix type="matrix" values="0 0 0 0 0 0 0 0 0 0 0 0 0 0 0 0 0 0 0.25 0"/>
<feBlend mode="normal" in2="BackgroundImageFix" result="effect1_dropShadow"/>
<feBlend mode="normal" in="SourceGraphic" in2="effect1_dropShadow" result="shape"/>
</filter>
</defs>
</svg>
