<svg width="104" height="128" viewBox="0 0 104 128" fill="none" xmlns="http://www.w3.org/2000/svg">
<path d="M28.5601 78.6464L25.8268 75.9132L32.2065 69.5334L39.853 77.1799L40.2065 77.5334L40.5601 77.1799L71.5328 46.2071L77.9126 52.5868L72.853 57.6464L40.2065 90.2929L28.5601 78.6464ZM31.4994 68.8263L25.1197 75.2061L23.0004 73.0868L29.3802 66.7071L31.4994 68.8263ZM72.3056 9.95064L72.4553 10.1249H72.685H95.0463C97.1467 10.1273 99.1604 10.9628 100.646 12.448C102.131 13.9332 102.966 15.9469 102.969 18.0474V119.109C102.966 121.209 102.131 123.223 100.646 124.708C99.1604 126.193 97.1467 127.029 95.0463 127.031H8.42245C6.32202 127.029 4.3083 126.193 2.82308 124.708C1.33792 123.223 0.502471 121.209 0.5 119.109V18.0471C0.502471 15.9468 1.33792 13.9332 2.82308 12.448C4.3083 10.9628 6.32202 10.1273 8.42245 10.1249H30.7838H31.0135L31.1631 9.95064C33.7085 6.98617 36.8646 4.60686 40.4152 2.97568C43.9658 1.34451 47.827 0.5 51.7344 0.5C55.6417 0.5 59.5029 1.34451 63.0535 2.97568C66.6041 4.60686 69.7602 6.98617 72.3056 9.95064ZM72.6875 27.6718V27.6712C72.6813 22.1162 70.4718 16.7904 66.5438 12.8624C62.6158 8.93436 57.29 6.72487 51.7349 6.71867L51.7338 6.71867C46.1788 6.72487 40.853 8.93436 36.925 12.8624C32.9969 16.7904 30.7874 22.1162 30.7812 27.6712V27.6718V28.8749V29.3749H31.2812H72.1875H72.6875V28.8749V27.6718ZM96.75 119.11V119.109V18.0468V18.046C96.7493 17.5947 96.5697 17.1621 96.2506 16.843C95.9315 16.5239 95.4989 16.3443 95.0476 16.3437H95.0469H77.1979H76.4409L76.738 17.0399C78.1723 20.4006 78.9099 24.0173 78.9062 27.6713V27.6718V32.4843C78.9062 33.309 78.5787 34.0998 77.9955 34.683C77.4124 35.2661 76.6215 35.5937 75.7969 35.5937H27.6719C26.8472 35.5937 26.0563 35.2661 25.4732 34.683C24.8901 34.0998 24.5625 33.309 24.5625 32.4843V27.6718V27.6713C24.5588 24.0173 25.2964 20.4006 26.7307 17.0399L27.0279 16.3437H26.2708H8.42188H8.42113C7.96984 16.3443 7.53722 16.5239 7.21811 16.843C6.899 17.1621 6.71943 17.5948 6.71875 18.046V18.0468L6.71875 119.109L6.71875 119.11C6.71943 119.561 6.899 119.994 7.21811 120.313C7.53722 120.632 7.96983 120.812 8.42113 120.812H8.42188H95.0469H95.0476C95.4989 120.812 95.9315 120.632 96.2506 120.313C96.5697 119.994 96.7493 119.561 96.75 119.11Z" fill="black" stroke="#222325"/>
</svg>
