<svg width="104" height="129" viewBox="0 0 104 129" fill="none" xmlns="http://www.w3.org/2000/svg">
<path d="M95.3125 10.453H72.9506C70.3582 7.4339 67.1439 5.01072 63.5279 3.34946C59.9118 1.68821 55.9794 0.828125 52 0.828125C48.0206 0.828125 44.0882 1.68821 40.4721 3.34946C36.8561 5.01072 33.6418 7.4339 31.0494 10.453H8.6875C6.45466 10.4556 4.314 11.3437 2.73515 12.9226C1.15629 14.5014 0.268172 16.6421 0.265625 18.8749V119.937C0.268172 122.17 1.15629 124.311 2.73515 125.89C4.314 127.469 6.45466 128.357 8.6875 128.359H95.3125C97.5453 128.357 99.686 127.469 101.265 125.89C102.844 124.311 103.732 122.17 103.734 119.937V18.8749C103.732 16.6421 102.844 14.5014 101.265 12.9226C99.686 11.3437 97.5453 10.4556 95.3125 10.453ZM52 8.04679C57.4226 8.05284 62.6215 10.2097 66.4559 14.0441C70.2903 17.8785 72.4471 23.0773 72.4531 28.4999V29.703H31.5469V28.4999C31.5529 23.0773 33.7097 17.8785 37.5441 14.0441C41.3785 10.2097 46.5774 8.05284 52 8.04679V8.04679ZM96.5156 119.937C96.5151 120.256 96.3882 120.562 96.1627 120.788C95.9372 121.013 95.6314 121.14 95.3125 121.141H8.6875C8.36856 121.14 8.06282 121.013 7.83729 120.788C7.61176 120.562 7.48485 120.256 7.48438 119.937V18.8749C7.48485 18.556 7.61176 18.2502 7.83729 18.0247C8.06282 17.7992 8.36856 17.6723 8.6875 17.6718H26.5365C25.0756 21.0947 24.3244 24.7783 24.3281 28.4999V33.3124C24.3281 34.2697 24.7084 35.1877 25.3853 35.8646C26.0622 36.5415 26.9802 36.9218 27.9375 36.9218H76.0625C77.0198 36.9218 77.9378 36.5415 78.6147 35.8646C79.2916 35.1877 79.6719 34.2697 79.6719 33.3124V28.4999C79.6756 24.7783 78.9243 21.0947 77.4635 17.6718H95.3125C95.6314 17.6723 95.9372 17.7992 96.1627 18.0247C96.3882 18.2502 96.5151 18.556 96.5156 18.8749V119.937Z" fill="black"/>
</svg>
