<svg width="133" height="133" viewBox="0 0 133 133" fill="none" xmlns="http://www.w3.org/2000/svg">
<rect x="3.5" y="3.5" width="126" height="126" rx="10.5" stroke="#9D9D9D" stroke-width="7"/>
<rect x="3.5" y="3.5" width="126" height="126" rx="10.5" stroke="url(#paint0_linear)" stroke-width="7"/>
<path d="M32 29C32 39.9076 40.8264 48.75 51.7143 48.75H100.967C100.985 48.75 101 48.7353 101 48.7171C101 37.8277 92.1883 29 81.3185 29H32Z" fill="url(#paint1_linear)"/>
<path d="M101 88.2829C101 99.1723 92.1883 108 81.3185 108H32C32 97.0924 40.8264 88.25 51.7143 88.25H100.967C100.985 88.25 101 88.2647 101 88.2829Z" fill="url(#paint2_linear)"/>
<path d="M101 78.375C101 80.1929 99.5289 81.6667 97.7143 81.6667H64.8571C61.2278 81.6667 58.2857 78.7192 58.2857 75.0833V55.3333H94.4286C98.0579 55.3333 101 58.2808 101 61.9167V78.375Z" fill="url(#paint3_linear)"/>
<defs>
<linearGradient id="paint0_linear" x1="44.579" y1="7" x2="95.0141" y2="127.176" gradientUnits="userSpaceOnUse">
<stop stop-color="#C805C0"/>
<stop offset="0.510417" stop-color="#D74D58"/>
<stop offset="1" stop-color="#FBCA1F"/>
</linearGradient>
<linearGradient id="paint1_linear" x1="53.7895" y1="29" x2="90.4189" y2="105.232" gradientUnits="userSpaceOnUse">
<stop stop-color="#C805C0"/>
<stop offset="0.510417" stop-color="#D74D58"/>
<stop offset="1" stop-color="#FBCA1F"/>
</linearGradient>
<linearGradient id="paint2_linear" x1="53.7895" y1="29" x2="90.4189" y2="105.232" gradientUnits="userSpaceOnUse">
<stop stop-color="#C805C0"/>
<stop offset="0.510417" stop-color="#D74D58"/>
<stop offset="1" stop-color="#FBCA1F"/>
</linearGradient>
<linearGradient id="paint3_linear" x1="53.7895" y1="29" x2="90.4189" y2="105.232" gradientUnits="userSpaceOnUse">
<stop stop-color="#C805C0"/>
<stop offset="0.510417" stop-color="#D74D58"/>
<stop offset="1" stop-color="#FBCA1F"/>
</linearGradient>
</defs>
</svg>
